<svg width="227" height="52" viewBox="0 0 227 52" fill="none" xmlns="http://www.w3.org/2000/svg">
<g clip-path="url(#clip0_3_32)">
<path d="M63.1027 2.37276V18.4225C63.1027 19.2035 62.5621 19.8674 61.8283 20.0627L45.8016 24.1239C45.2995 24.2411 44.7589 24.1239 44.3727 23.8115C43.9479 23.4991 43.7162 22.9914 43.7162 22.4838V6.43402C43.7162 5.65301 44.2568 4.98915 44.9906 4.7939L61.0173 0.732642C61.1332 0.654541 61.2876 0.654541 61.4035 0.654541C61.7897 0.654541 62.1372 0.771693 62.4462 1.006C62.8324 1.35745 63.1027 1.82606 63.1027 2.37276Z" fill="#0077B4"/>
<path d="M70.9423 30.9186H53.3708V26.623H70.9423V30.9186ZM64.6861 47.7494H59.6657V30.6062H64.6861V47.7494Z" fill="white"/>
<path d="M83.4161 48.2181C81.7555 48.2181 80.2494 47.9447 78.8591 47.398C77.4689 46.8513 76.2717 46.0703 75.2676 45.094C74.2635 44.1178 73.4525 42.9463 72.9119 41.5795C72.3712 40.2127 72.0623 38.7679 72.0623 37.1668C72.0623 35.5657 72.3326 34.1208 72.9119 32.7541C73.4525 31.4264 74.2635 30.2548 75.2676 29.2786C76.2717 28.3023 77.5075 27.5213 78.8591 26.9746C80.2494 26.4279 81.7555 26.1545 83.4161 26.1545C85.0767 26.1545 86.5828 26.4279 87.9731 26.9746C89.3634 27.5213 90.5606 28.3023 91.5646 29.2786C92.5687 30.2548 93.3797 31.4264 93.9204 32.7541C94.461 34.0818 94.77 35.5657 94.77 37.1668C94.77 38.7679 94.4996 40.2518 93.9204 41.5795C93.3797 42.9463 92.5687 44.0787 91.5646 45.094C90.5606 46.1094 89.3248 46.8513 87.9731 47.398C86.5828 47.9447 85.0381 48.2181 83.4161 48.2181ZM83.4161 43.7663C84.6133 43.7663 85.6946 43.493 86.5828 42.9072C87.4711 42.3215 88.2048 41.5795 88.7069 40.5642C89.2089 39.5879 89.4792 38.4164 89.4792 37.1668C89.4792 35.8781 89.2089 34.7457 88.7069 33.7694C88.2048 32.7931 87.4711 32.0121 86.5828 31.4654C85.6946 30.9187 84.6133 30.6063 83.4161 30.6063C82.2189 30.6063 81.1762 30.8797 80.2494 31.4654C79.3225 32.0121 78.6274 32.7931 78.0868 33.7694C77.5847 34.7457 77.3144 35.8781 77.3144 37.1668C77.3144 38.4555 77.5847 39.5879 78.0868 40.5642C78.5888 41.5404 79.3225 42.3215 80.2494 42.9072C81.1762 43.493 82.2189 43.7663 83.4161 43.7663Z" fill="white"/>
<path d="M104.927 40.5641C102.609 40.5641 100.794 39.9783 99.4814 38.7678C98.1684 37.5962 97.5118 35.9561 97.5118 33.8474V26.623H102.532V33.2616C102.532 34.316 102.803 35.097 103.343 35.5656C103.884 36.0342 104.772 36.2685 105.969 36.2685C106.742 36.2685 107.514 36.1904 108.248 36.0342C108.982 35.878 109.638 35.6437 110.14 35.3704L111.26 38.3382C110.565 39.0802 109.638 39.6269 108.518 40.0174C107.437 40.3688 106.24 40.5641 104.927 40.5641ZM109.947 47.7494V26.623H114.967V47.7494H109.947Z" fill="white"/>
<path d="M124.661 47.7494H119.64V26.623H124.661V47.7494ZM124.352 39.0802V34.8237H133.466V39.0802H124.352ZM133.196 47.7494V26.623H138.216V47.7494H133.196Z" fill="white"/>
<path d="M153.277 48.2181C151.616 48.2181 150.11 47.9447 148.72 47.398C147.33 46.8513 146.133 46.0703 145.129 45.094C144.124 44.1178 143.313 42.9463 142.773 41.5795C142.232 40.2127 141.923 38.7679 141.923 37.1668C141.923 35.5657 142.194 34.1208 142.773 32.7541C143.313 31.4264 144.124 30.2548 145.129 29.2786C146.133 28.3023 147.368 27.5213 148.72 26.9746C150.11 26.4279 151.616 26.1545 153.277 26.1545C154.938 26.1545 156.444 26.4279 157.834 26.9746C159.224 27.5213 160.422 28.3023 161.426 29.2786C162.43 30.2548 163.241 31.4264 163.781 32.7541C164.322 34.0818 164.631 35.5657 164.631 37.1668C164.631 38.7679 164.361 40.2518 163.781 41.5795C163.241 42.9463 162.43 44.0787 161.426 45.094C160.422 46.1094 159.186 46.8513 157.834 47.398C156.444 47.9447 154.938 48.2181 153.277 48.2181ZM153.277 43.7663C154.474 43.7663 155.556 43.493 156.444 42.9072C157.332 42.3605 158.066 41.5795 158.568 40.5642C159.07 39.5879 159.34 38.4164 159.34 37.1668C159.34 35.8781 159.07 34.7457 158.568 33.7694C158.066 32.7931 157.332 32.0121 156.444 31.4654C155.556 30.9187 154.474 30.6063 153.277 30.6063C152.08 30.6063 151.037 30.8797 150.11 31.4654C149.184 32.0512 148.488 32.7931 147.948 33.7694C147.446 34.7457 147.175 35.8781 147.175 37.1668C147.175 38.4555 147.446 39.5879 147.948 40.5642C148.45 41.5404 149.184 42.3215 150.11 42.9072C151.037 43.493 152.08 43.7663 153.277 43.7663Z" fill="white"/>
<path d="M184.133 40.9547L187.339 44.274C186.412 45.4455 185.176 46.3827 183.67 47.1247C182.164 47.8666 180.503 48.2181 178.688 48.2181C176.989 48.2181 175.444 47.9447 174.093 47.398C172.702 46.8513 171.505 46.1093 170.501 45.094C169.497 44.1178 168.725 42.9462 168.184 41.5795C167.643 40.2127 167.373 38.7678 167.373 37.1277C167.373 35.5266 167.643 34.0427 168.223 32.715C168.802 31.3482 169.574 30.2158 170.617 29.2005C171.66 28.1851 172.857 27.4432 174.247 26.8965C175.637 26.3498 177.182 26.0764 178.843 26.0764C180.658 26.0764 182.28 26.4279 183.747 27.1698C185.215 27.9118 186.412 28.849 187.339 30.0205L184.133 33.3398C183.515 32.4807 182.782 31.7778 181.855 31.2701C180.928 30.7625 179.924 30.5282 178.843 30.5282C177.684 30.5282 176.641 30.8015 175.715 31.3873C174.788 31.973 174.054 32.715 173.552 33.6913C173.011 34.6675 172.78 35.8 172.78 37.0887C172.78 38.3773 173.05 39.5098 173.552 40.4861C174.093 41.4623 174.788 42.2433 175.715 42.8291C176.641 43.4149 177.684 43.6882 178.843 43.6882C179.924 43.6882 180.928 43.4149 181.855 42.9072C182.782 42.4776 183.515 41.8138 184.133 40.9547Z" fill="white"/>
<path d="M206.687 30.9186H189.115V26.623H206.687V30.9186ZM200.392 47.7494H195.371V30.6062H200.392V47.7494Z" fill="white"/>
<path d="M209.892 47.7494V26.623H214.912V43.9224L214.565 43.4929H219.16C220.01 43.4929 220.705 43.2586 221.207 42.79C221.709 42.3214 221.941 41.6575 221.941 40.7984C221.941 40.0174 221.709 39.3926 221.207 38.963C220.705 38.5335 220.049 38.2992 219.16 38.2992H212.286V34.0817H219.16C220.744 34.0817 222.134 34.3551 223.331 34.9018C224.49 35.4485 225.417 36.2295 226.073 37.2448C226.73 38.2601 227.039 39.4316 227.039 40.7984C227.039 42.1652 226.73 43.3367 226.073 44.391C225.417 45.4064 224.49 46.2264 223.331 46.8122C222.134 47.3979 220.744 47.7103 219.199 47.7103H209.892V47.7494Z" fill="white"/>
<path d="M41.2446 2.37267V49.78C41.2446 50.7953 40.4336 51.6154 39.4296 51.6154H23.9821C23.4801 51.7716 22.9394 51.6544 22.5146 51.342C22.0898 51.0296 21.8581 50.522 21.8581 49.9753V29.9424C21.8581 28.6537 21.2788 27.4822 20.2748 26.6621C19.541 26.0763 18.6528 25.803 17.7645 25.803C17.417 25.803 17.0694 25.842 16.7605 25.9201L2.0854 29.6299C1.46751 29.7861 0.81099 29.5909 0.386186 29.0832C0.115856 28.7708 0 28.3413 0 27.9508V11.9401C0 11.159 0.54066 10.4952 1.27441 10.2999L39.1592 0.73255C39.6613 0.615399 40.2019 0.73255 40.6267 1.04495C41.0129 1.35736 41.2446 1.82597 41.2446 2.37267Z" fill="#004982"/>
</g>
<defs>
<clipPath id="clip0_3_32">
<rect width="227" height="51" fill="white" transform="translate(0 0.654541)"/>
</clipPath>
</defs>
</svg>
