<svg width="25" height="25" viewBox="0 0 25 25" fill="none" xmlns="http://www.w3.org/2000/svg">
<path d="M13.0287 6.53482C14.2286 6.73591 15.3185 7.30264 16.1887 8.171C17.0588 9.03937 17.6221 10.1271 17.8282 11.3245M13.2119 2.60889C15.346 2.96994 17.2924 3.97999 18.8404 5.52019C20.3883 7.06497 21.3958 9.00736 21.7576 11.1371M20.0906 19.6105C20.0906 19.6105 18.9319 20.7486 18.648 21.0822C18.1854 21.5758 17.6404 21.8089 16.926 21.8089C16.8573 21.8089 16.784 21.8089 16.7153 21.8043C15.3552 21.7175 14.0912 21.1873 13.1432 20.7349C10.5511 19.4826 8.27495 17.7047 6.38354 15.4515C4.82186 13.5731 3.77769 11.8364 3.08615 9.9717C2.66024 8.83369 2.50453 7.94704 2.57323 7.11067C2.61903 6.57594 2.82511 6.13262 3.20523 5.75328L4.7669 4.19479C4.99131 3.98456 5.22945 3.8703 5.46302 3.8703C5.75154 3.8703 5.9851 4.04397 6.13165 4.19022C6.13623 4.19479 6.14081 4.19936 6.14539 4.20393C6.42475 4.46444 6.69038 4.73409 6.96974 5.02202C7.11171 5.16827 7.25826 5.31453 7.40481 5.46535L8.65507 6.71305C9.14051 7.19751 9.14051 7.6454 8.65507 8.12986C8.52226 8.26239 8.39402 8.39493 8.26121 8.5229C7.87652 8.91595 8.17872 8.61437 7.78028 8.97086C7.77112 8.98 7.76196 8.98457 7.75739 8.99371C7.36353 9.38676 7.43681 9.77067 7.51924 10.0312C7.52382 10.0449 7.5284 10.0586 7.53298 10.0723C7.85814 10.8584 8.31611 11.5988 9.01222 12.4809L9.0168 12.4854C10.2808 14.0394 11.6135 15.2505 13.0836 16.1783C13.2713 16.2971 13.4637 16.3931 13.6469 16.4845C13.8117 16.5668 13.9675 16.6445 14.1003 16.7267C14.1186 16.7359 14.1369 16.7496 14.1552 16.7587C14.3109 16.8364 14.4575 16.873 14.6086 16.873C14.9887 16.873 15.2269 16.6353 15.3047 16.5576L16.2024 15.6618C16.3581 15.5064 16.6054 15.319 16.8939 15.319C17.1779 15.319 17.4114 15.4972 17.5534 15.6526C17.558 15.6572 17.558 15.6572 17.5626 15.6618L20.086 18.18C20.5577 18.6462 20.0906 19.6105 20.0906 19.6105Z" stroke="white" stroke-width="2" stroke-linecap="round" stroke-linejoin="round"/>
</svg>
