<svg width="358" height="73" viewBox="0 0 358 73" fill="none" xmlns="http://www.w3.org/2000/svg">
<path d="M113.385 26.5963C115.985 26.5963 118.085 27.1463 119.685 28.2463C121.305 29.3263 122.115 30.9763 122.115 33.1963C122.115 35.4563 121.315 37.1263 119.715 38.2063C118.115 39.2863 116.005 39.8263 113.385 39.8263H101.205H98.5952V18.8263H104.835H119.835V23.6263H104.835V26.5963H113.385ZM112.905 35.0263C114.885 35.0263 115.875 34.4063 115.875 33.1663C115.875 31.9463 114.885 31.3363 112.905 31.3363H104.835V35.0263H112.905ZM128.068 37.3063C125.608 35.3863 124.378 32.7263 124.378 29.3263C124.378 25.9263 125.608 23.2663 128.068 21.3463C130.528 19.4263 133.948 18.4663 138.328 18.4663C142.708 18.4663 146.128 19.4263 148.588 21.3463C151.048 23.2663 152.278 25.9263 152.278 29.3263C152.278 32.7263 151.048 35.3863 148.588 37.3063C146.128 39.2263 142.708 40.1863 138.328 40.1863C133.948 40.1863 130.528 39.2263 128.068 37.3063ZM132.628 25.1263C131.288 26.1663 130.618 27.5663 130.618 29.3263C130.618 31.0863 131.288 32.4963 132.628 33.5563C133.988 34.5963 135.888 35.1163 138.328 35.1163C140.768 35.1163 142.658 34.5963 143.998 33.5563C145.358 32.4963 146.038 31.0863 146.038 29.3263C146.038 27.5663 145.358 26.1663 143.998 25.1263C142.658 24.0663 140.768 23.5363 138.328 23.5363C135.888 23.5363 133.988 24.0663 132.628 25.1263ZM159.031 18.8263H179.941V39.8263H173.701V23.9263H164.671C164.631 24.4863 164.581 25.3063 164.521 26.3863C164.421 28.1263 164.331 29.4163 164.251 30.2563C164.191 31.0763 164.061 32.1263 163.861 33.4063C163.681 34.6863 163.421 35.6363 163.081 36.2563C162.761 36.8563 162.321 37.4963 161.761 38.1763C161.221 38.8563 160.531 39.3263 159.691 39.5863C158.851 39.8463 157.861 39.9763 156.721 39.9763C155.921 39.9763 154.841 39.9263 153.481 39.8263V34.7563C154.121 34.8363 154.651 34.8763 155.071 34.8763C155.511 34.8763 155.891 34.8163 156.211 34.6963C156.551 34.5563 156.841 34.3263 157.081 34.0063C157.341 33.6863 157.551 33.3463 157.711 32.9863C157.891 32.6263 158.041 32.1363 158.161 31.5163C158.281 30.8963 158.371 30.3063 158.431 29.7463C158.511 29.1663 158.571 28.4163 158.611 27.4963C158.671 26.5763 158.711 25.7363 158.731 24.9763C158.771 24.2163 158.811 23.2463 158.851 22.0663C158.911 20.8663 158.971 19.7863 159.031 18.8263ZM184.992 39.8263V18.8263H206.382V23.6863H191.232V26.8663H203.052V31.4263H191.232V34.9663H206.952V39.8263H184.992ZM210.861 39.8263V18.8263H232.251V23.6863H217.101V26.8663H228.921V31.4263H217.101V34.9663H232.821V39.8263H210.861ZM258.268 26.7163C263.388 27.2363 265.948 29.3263 265.948 32.9863C265.948 34.2863 265.648 35.4163 265.048 36.3763C264.448 37.3163 263.608 38.0663 262.528 38.6263C261.448 39.1663 260.258 39.5663 258.958 39.8263C257.658 40.0663 256.218 40.1863 254.638 40.1863C251.578 40.1863 249.058 39.6163 247.078 38.4763C245.118 37.3363 243.978 35.6563 243.658 33.4363L249.538 33.1363C250.058 34.5363 251.758 35.2363 254.638 35.2363C256.258 35.2363 257.538 35.0463 258.478 34.6663C259.438 34.2863 259.918 33.7263 259.918 32.9863C259.918 32.3063 259.478 31.7563 258.598 31.3363C257.738 30.9163 256.448 30.7063 254.728 30.7063C253.488 30.7063 252.028 30.8463 250.348 31.1263V27.1663L256.558 23.7763H245.158V18.8263H265.108V23.2363L258.268 26.7163ZM281.404 18.8263H302.314V39.8263H296.074V23.9263H287.044C287.004 24.4863 286.954 25.3063 286.894 26.3863C286.794 28.1263 286.704 29.4163 286.624 30.2563C286.564 31.0763 286.434 32.1263 286.234 33.4063C286.054 34.6863 285.794 35.6363 285.454 36.2563C285.134 36.8563 284.694 37.4963 284.134 38.1763C283.594 38.8563 282.904 39.3263 282.064 39.5863C281.224 39.8463 280.234 39.9763 279.094 39.9763C278.294 39.9763 277.214 39.9263 275.854 39.8263V34.7563C276.494 34.8363 277.024 34.8763 277.444 34.8763C277.884 34.8763 278.264 34.8163 278.584 34.6963C278.924 34.5563 279.214 34.3263 279.454 34.0063C279.714 33.6863 279.924 33.3463 280.084 32.9863C280.264 32.6263 280.414 32.1363 280.534 31.5163C280.654 30.8963 280.744 30.3063 280.804 29.7463C280.884 29.1663 280.944 28.4163 280.984 27.4963C281.044 26.5763 281.084 25.7363 281.104 24.9763C281.144 24.2163 281.184 23.2463 281.224 22.0663C281.284 20.8663 281.344 19.7863 281.404 18.8263ZM307.365 39.8263V18.8263H328.755V23.6863H313.605V26.8663H325.425V31.4263H313.605V34.9663H329.325V39.8263H307.365ZM331.434 23.9263V18.8263H355.374V23.9263H346.524V39.8263H340.284V23.9263H331.434Z" fill="#D4262C"/>
<path d="M78.7192 39.2904C78.3983 41.7455 76.9116 43.4877 75.2148 45.1526C71.9346 48.3674 68.737 51.6666 65.4662 54.8908C64.232 56.1054 63.6161 57.4842 63.6656 59.2217C63.7246 61.3204 63.6798 63.4213 63.6798 65.52C63.6798 65.792 63.6798 66.064 63.6798 66.3852C63.34 66.4017 63.0946 66.4274 62.8468 66.4274C57.3742 66.4274 51.8993 66.4157 46.4268 66.4462C45.7259 66.4509 45.5914 66.2258 45.5938 65.5833C45.6197 60.4481 45.6127 55.3105 45.6056 50.1752C45.6009 46.937 46.7737 44.2334 49.1784 42.0269C54.1341 37.4778 59.0497 32.8866 64.0125 28.347C64.6143 27.7983 65.4237 27.477 66.1105 27.0151C66.3252 26.8721 66.5801 26.6165 66.6037 26.3914C67.0945 21.765 67.5523 17.1339 68.0267 12.5075C68.1919 10.8989 68.2981 9.27625 68.5907 7.68878C69.0273 5.32282 71.0308 3.71424 73.4449 3.62748C75.6821 3.54541 77.7658 5.04143 78.4573 7.22684C78.5399 7.48946 78.6319 7.75209 78.7192 8.01471V39.2904ZM60.6733 63.4026C60.6733 61.9113 60.7087 60.4739 60.6663 59.0388C60.5955 56.6166 61.4733 54.6281 63.196 52.9234C66.7878 49.371 70.3134 45.7552 73.9098 42.2098C75.144 40.9928 75.7222 39.6257 75.7151 37.8858C75.6774 28.3728 75.6986 18.8573 75.6963 9.34425C75.6963 9.06521 75.701 8.78617 75.675 8.50948C75.5311 7.02049 73.9476 6.17634 72.6095 6.86573C71.734 7.31594 71.4815 8.10851 71.3942 9.0019C71.2172 10.8145 71.0355 12.6247 70.8491 14.4373C70.4314 18.5384 70.0042 22.6372 69.6031 26.7407C69.5842 26.933 69.7329 27.2496 69.8933 27.3316C72.9305 28.8605 73.6314 33.1399 70.5187 35.7919C66.9057 38.8707 63.4462 42.1253 59.9182 45.3026C59.7365 45.4668 59.5453 45.6239 59.3211 45.8185C58.6415 45.0799 57.9949 44.3717 57.3129 43.6284C57.5843 43.3798 57.8203 43.1594 58.0633 42.9414C61.6102 39.7477 65.1571 36.554 68.6992 33.3556C69.7305 32.4247 69.8296 31.2522 68.9848 30.3518C68.2509 29.571 67.0119 29.6273 66.0586 30.5089C61.0816 35.1095 56.1094 39.7148 51.13 44.3154C49.4333 45.8842 48.6097 47.814 48.6168 50.1166C48.6309 54.267 48.6215 58.4151 48.6215 62.5655C48.6215 62.8328 48.6215 63.1024 48.6215 63.3979H60.6733V63.4026Z" fill="#D4262C"/>
<path d="M15.5627 66.3735C15.5485 66.078 15.5273 65.806 15.5273 65.5364C15.5249 63.3862 15.4943 61.2336 15.5367 59.0833C15.5674 57.4654 15.0105 56.1476 13.8565 55.0103C11.289 52.4802 8.75684 49.9149 6.21526 47.3567C4.91025 46.0412 3.59345 44.7375 2.33328 43.3822C1.02827 41.9753 0.492583 40.2494 0.490223 38.3689C0.478424 28.5486 0.476064 18.7283 0.490223 8.91043C0.494943 6.23964 2.25304 4.12926 4.72618 3.72126C7.28192 3.29918 9.66539 4.61934 10.4347 7.06268C10.7958 8.20463 10.8666 9.44506 10.994 10.648C11.5368 15.8559 12.0536 21.0662 12.5657 26.2764C12.6081 26.7032 12.7639 26.8978 13.1839 27.0831C13.8683 27.3856 14.5645 27.7631 15.1096 28.2625C20.1267 32.8585 25.1084 37.4966 30.1136 42.1089C32.4499 44.2615 33.5944 46.9159 33.5968 50.0697C33.5992 55.2589 33.5968 60.4457 33.6015 65.6349C33.6015 66.0968 33.6275 66.4438 32.9526 66.4415C27.3243 66.4181 21.696 66.4274 16.0701 66.4251C15.9238 66.4251 15.7751 66.3969 15.5627 66.3735ZM30.5809 63.4049C30.5809 63.1024 30.5809 62.8797 30.5809 62.6546C30.5809 58.4291 30.5809 54.2037 30.5809 49.9783C30.5809 47.7928 29.7974 45.924 28.1903 44.4327C23.1662 39.7687 18.1349 35.1166 13.0943 30.469C12.8229 30.2181 12.4831 29.9954 12.1362 29.8828C11.2489 29.5944 10.3828 29.9696 9.92025 30.7692C9.45772 31.5641 9.58751 32.4997 10.3261 33.1844C11.6666 34.4272 13.0376 35.6348 14.3969 36.8588C16.8866 39.1005 19.3739 41.3445 21.8966 43.6167C21.2075 44.3694 20.5467 45.0939 19.8742 45.8302C15.9426 42.2871 12.0465 38.8355 8.22351 35.3065C5.72205 32.9991 6.22706 29.1278 9.17925 27.4395C9.60167 27.198 9.64179 26.9447 9.59695 26.525C9.0943 21.6946 8.61524 16.8642 8.11495 12.0338C7.98044 10.7277 7.86717 9.41457 7.6241 8.1249C7.44947 7.19634 6.55272 6.62654 5.5781 6.62419C4.70495 6.6195 3.87427 7.19165 3.62885 8.05221C3.51321 8.45553 3.51321 8.90105 3.51321 9.32781C3.50613 18.8667 3.52501 28.4056 3.49197 37.9468C3.48725 39.6281 4.04182 40.9623 5.23592 42.1441C8.84651 45.713 12.3934 49.3451 16.0016 52.914C17.7243 54.6164 18.6116 56.6025 18.5385 59.0247C18.5007 60.2886 18.529 61.5548 18.5338 62.821C18.5338 63.0133 18.5715 63.2032 18.5928 63.4049H30.5832H30.5809Z" fill="#D4262C"/>
<path d="M39.6215 36.4954C39.3831 36.2726 39.2156 36.1226 39.0551 35.9631C33.5826 30.523 28.1006 25.0923 22.6422 19.6359C18.798 15.795 18.1066 10.233 20.8747 5.79182C23.9142 0.91452 29.9909 -0.792536 35.1566 1.89233C36.7401 2.71537 38.1584 3.85028 39.6923 4.8656C40.648 4.15511 41.6958 3.27345 42.8403 2.54185C46.9536 -0.0867343 51.7465 0.00705993 55.5105 2.72709C60.7116 6.48356 61.5824 14.2966 57.1789 18.9535C53.7288 22.6021 50.0875 26.0748 46.5265 29.6226C44.2445 31.8971 41.9601 34.1669 39.6215 36.493V36.4954ZM39.605 9.20593C38.248 7.94909 36.9855 6.65473 35.5956 5.51747C32.195 2.73882 27.1779 3.0671 24.3343 6.17872C21.3349 9.45918 21.5001 14.2638 24.7661 17.5278C29.5213 22.2809 34.3023 27.0104 39.074 31.7494C39.2439 31.9182 39.428 32.0753 39.6309 32.2629C41.4952 30.4081 43.2934 28.619 45.0893 26.8299C48.3601 23.5705 51.6733 20.351 54.8851 17.0354C57.1789 14.6694 57.6367 11.0748 56.209 8.13902C53.9105 3.41179 47.7866 2.1315 43.5719 5.5503C42.1796 6.67818 40.9289 7.98192 39.6073 9.20828L39.605 9.20593Z" fill="#D4262C"/>
<path d="M98.5344 66.4414V53.8414H100.262L105.974 63.5134H105.254L111.062 53.8414H112.646V66.4414H111.086V55.7854L111.398 55.9294L105.974 64.9054H105.206L99.7344 55.8334L100.094 55.7614V66.4414H98.5344ZM129.783 66.4414V53.8414H131.487V66.4414H129.783ZM122.799 58.2814C124.383 58.2974 125.591 58.6494 126.423 59.3374C127.255 60.0254 127.671 61.0174 127.671 62.3134C127.671 63.6574 127.223 64.6894 126.327 65.4094C125.431 66.1294 124.151 66.4814 122.487 66.4654L117.495 66.4414V53.8414H119.199V58.2334L122.799 58.2814ZM122.367 65.1694C123.551 65.1854 124.439 64.9534 125.031 64.4734C125.639 63.9774 125.943 63.2574 125.943 62.3134C125.943 61.3694 125.647 60.6814 125.055 60.2494C124.463 59.8014 123.567 59.5694 122.367 59.5534L119.199 59.5054V65.1214L122.367 65.1694ZM146.004 66.5854C145.092 66.5854 144.188 66.4574 143.292 66.2014C142.396 65.9454 141.604 65.5534 140.916 65.0254L141.468 63.7534C142.076 64.2014 142.78 64.5454 143.58 64.7854C144.38 65.0094 145.172 65.1214 145.956 65.1214C146.74 65.1054 147.42 64.9934 147.996 64.7854C148.572 64.5774 149.02 64.2894 149.34 63.9214C149.66 63.5534 149.82 63.1374 149.82 62.6734C149.82 62.0014 149.516 61.4814 148.908 61.1134C148.3 60.7294 147.468 60.5374 146.412 60.5374H144.252V59.2894H146.292C146.916 59.2894 147.468 59.2094 147.948 59.0494C148.428 58.8894 148.796 58.6574 149.052 58.3534C149.324 58.0494 149.46 57.6894 149.46 57.2734C149.46 56.8254 149.3 56.4414 148.98 56.1214C148.676 55.8014 148.252 55.5614 147.708 55.4014C147.164 55.2414 146.548 55.1614 145.86 55.1614C145.236 55.1774 144.588 55.2734 143.916 55.4494C143.244 55.6094 142.58 55.8574 141.924 56.1934L141.444 54.8734C142.18 54.4894 142.908 54.2014 143.628 54.0094C144.364 53.8014 145.1 53.6974 145.836 53.6974C146.844 53.6654 147.748 53.7854 148.548 54.0574C149.364 54.3294 150.012 54.7214 150.492 55.2334C150.972 55.7294 151.212 56.3294 151.212 57.0334C151.212 57.6574 151.02 58.2014 150.636 58.6654C150.252 59.1294 149.74 59.4894 149.1 59.7454C148.46 60.0014 147.732 60.1294 146.916 60.1294L146.988 59.6734C148.428 59.6734 149.548 59.9534 150.348 60.5134C151.164 61.0734 151.572 61.8334 151.572 62.7934C151.572 63.5454 151.324 64.2094 150.828 64.7854C150.332 65.3454 149.66 65.7854 148.812 66.1054C147.98 66.4254 147.044 66.5854 146.004 66.5854ZM163.265 66.4414V63.6574L163.193 63.2014V58.5454C163.193 57.4734 162.889 56.6494 162.281 56.0734C161.689 55.4974 160.801 55.2094 159.617 55.2094C158.801 55.2094 158.025 55.3454 157.289 55.6174C156.553 55.8894 155.929 56.2494 155.417 56.6974L154.649 55.4254C155.289 54.8814 156.057 54.4654 156.953 54.1774C157.849 53.8734 158.793 53.7214 159.785 53.7214C161.417 53.7214 162.673 54.1294 163.553 54.9454C164.449 55.7454 164.897 56.9694 164.897 58.6174V66.4414H163.265ZM158.921 66.5614C157.977 66.5614 157.153 66.4094 156.449 66.1054C155.761 65.7854 155.233 65.3534 154.865 64.8094C154.497 64.2494 154.313 63.6094 154.313 62.8894C154.313 62.2334 154.465 61.6414 154.769 61.1134C155.089 60.5694 155.601 60.1374 156.305 59.8174C157.025 59.4814 157.985 59.3134 159.185 59.3134H163.529V60.5854H159.233C158.017 60.5854 157.169 60.8014 156.689 61.2334C156.225 61.6654 155.993 62.2014 155.993 62.8414C155.993 63.5614 156.273 64.1374 156.833 64.5694C157.393 65.0014 158.177 65.2174 159.185 65.2174C160.145 65.2174 160.969 65.0014 161.657 64.5694C162.361 64.1214 162.873 63.4814 163.193 62.6494L163.577 63.8254C163.257 64.6574 162.697 65.3214 161.897 65.8174C161.113 66.3134 160.121 66.5614 158.921 66.5614ZM175.097 66.5854C174.073 66.5854 173.161 66.4174 172.361 66.0814C171.577 65.7454 170.905 65.2334 170.345 64.5454C169.785 63.8574 169.361 63.0094 169.073 62.0014C168.785 60.9774 168.641 59.7934 168.641 58.4494C168.641 57.2494 168.753 56.2014 168.977 55.3054C169.201 54.3934 169.513 53.6094 169.913 52.9534C170.313 52.2974 170.777 51.7454 171.305 51.2974C171.849 50.8334 172.433 50.4654 173.057 50.1934C173.697 49.9054 174.353 49.6894 175.025 49.5454L180.689 48.2254L180.977 49.8094L175.649 51.0094C175.313 51.0894 174.905 51.2014 174.425 51.3454C173.961 51.4894 173.481 51.7054 172.985 51.9934C172.505 52.2814 172.057 52.6814 171.641 53.1934C171.225 53.7054 170.889 54.3694 170.633 55.1854C170.393 55.9854 170.273 56.9854 170.273 58.1854C170.273 58.4414 170.281 58.6494 170.297 58.8094C170.313 58.9534 170.329 59.1134 170.345 59.2894C170.377 59.4494 170.401 59.6894 170.417 60.0094L169.673 59.3854C169.849 58.4094 170.209 57.5614 170.753 56.8414C171.297 56.1054 171.977 55.5374 172.793 55.1374C173.625 54.7214 174.545 54.5134 175.553 54.5134C176.721 54.5134 177.761 54.7694 178.673 55.2814C179.585 55.7774 180.297 56.4734 180.809 57.3694C181.337 58.2654 181.601 59.3054 181.601 60.4894C181.601 61.6574 181.329 62.7054 180.785 63.6334C180.257 64.5614 179.505 65.2894 178.529 65.8174C177.553 66.3294 176.409 66.5854 175.097 66.5854ZM175.289 65.1694C176.185 65.1694 176.977 64.9694 177.665 64.5694C178.353 64.1534 178.889 63.5934 179.273 62.8894C179.673 62.1854 179.873 61.3934 179.873 60.5134C179.873 59.6494 179.673 58.8814 179.273 58.2094C178.889 57.5374 178.353 57.0094 177.665 56.6254C176.977 56.2254 176.177 56.0254 175.265 56.0254C174.369 56.0254 173.577 56.2174 172.889 56.6014C172.201 56.9694 171.657 57.4894 171.257 58.1614C170.873 58.8334 170.681 59.6094 170.681 60.4894C170.681 61.3694 170.873 62.1614 171.257 62.8654C171.657 63.5694 172.201 64.1294 172.889 64.5454C173.593 64.9614 174.393 65.1694 175.289 65.1694ZM190.437 66.5614C189.221 66.5614 188.125 66.2894 187.149 65.7454C186.189 65.1854 185.429 64.4254 184.869 63.4654C184.309 62.4894 184.029 61.3774 184.029 60.1294C184.029 58.8654 184.309 57.7534 184.869 56.7934C185.429 55.8334 186.189 55.0814 187.149 54.5374C188.109 53.9934 189.205 53.7214 190.437 53.7214C191.685 53.7214 192.789 53.9934 193.749 54.5374C194.725 55.0814 195.485 55.8334 196.029 56.7934C196.589 57.7534 196.869 58.8654 196.869 60.1294C196.869 61.3774 196.589 62.4894 196.029 63.4654C195.485 64.4254 194.725 65.1854 193.749 65.7454C192.773 66.2894 191.669 66.5614 190.437 66.5614ZM190.437 65.0494C191.349 65.0494 192.157 64.8494 192.861 64.4494C193.565 64.0334 194.117 63.4574 194.517 62.7214C194.933 61.9694 195.141 61.1054 195.141 60.1294C195.141 59.1374 194.933 58.2734 194.517 57.5374C194.117 56.8014 193.565 56.2334 192.861 55.8334C192.157 55.4174 191.357 55.2094 190.461 55.2094C189.565 55.2094 188.765 55.4174 188.061 55.8334C187.357 56.2334 186.797 56.8014 186.381 57.5374C185.965 58.2734 185.757 59.1374 185.757 60.1294C185.757 61.1054 185.965 61.9694 186.381 62.7214C186.797 63.4574 187.357 64.0334 188.061 64.4494C188.765 64.8494 189.557 65.0494 190.437 65.0494ZM202.442 66.4414V54.8734L202.874 55.3294H197.666V53.8414H208.922V55.3294H203.714L204.146 54.8734V66.4414H202.442ZM211.386 66.4414V53.8414H213.09V63.8494L221.514 53.8414H223.026V66.4414H221.322V56.4094L212.922 66.4414H211.386ZM227.909 66.4414V53.8414H229.637L235.349 63.5134H234.629L240.437 53.8414H242.021V66.4414H240.461V55.7854L240.773 55.9294L235.349 64.9054H234.581L229.109 55.8334L229.469 55.7614V66.4414H227.909ZM252.15 66.5614C250.902 66.5614 249.782 66.2894 248.79 65.7454C247.814 65.1854 247.046 64.4254 246.486 63.4654C245.926 62.4894 245.646 61.3774 245.646 60.1294C245.646 58.8654 245.926 57.7534 246.486 56.7934C247.046 55.8334 247.814 55.0814 248.79 54.5374C249.782 53.9934 250.902 53.7214 252.15 53.7214C253.222 53.7214 254.19 53.9294 255.054 54.3454C255.918 54.7614 256.598 55.3854 257.094 56.2174L255.822 57.0814C255.39 56.4414 254.854 55.9694 254.214 55.6654C253.574 55.3614 252.878 55.2094 252.126 55.2094C251.23 55.2094 250.422 55.4174 249.702 55.8334C248.982 56.2334 248.414 56.8014 247.998 57.5374C247.582 58.2734 247.374 59.1374 247.374 60.1294C247.374 61.1214 247.582 61.9854 247.998 62.7214C248.414 63.4574 248.982 64.0334 249.702 64.4494C250.422 64.8494 251.23 65.0494 252.126 65.0494C252.878 65.0494 253.574 64.8974 254.214 64.5934C254.854 64.2894 255.39 63.8254 255.822 63.2014L257.094 64.0654C256.598 64.8814 255.918 65.5054 255.054 65.9374C254.19 66.3534 253.222 66.5614 252.15 66.5614ZM268.108 66.4414V61.9054L268.42 62.2654H264.148C262.532 62.2654 261.268 61.9134 260.356 61.2094C259.444 60.5054 258.988 59.4814 258.988 58.1374C258.988 56.6974 259.476 55.6254 260.452 54.9214C261.428 54.2014 262.732 53.8414 264.364 53.8414H269.668V66.4414H268.108ZM258.892 66.4414L262.348 61.5934H264.124L260.74 66.4414H258.892ZM268.108 61.4014V54.8254L268.42 55.3294H264.412C263.244 55.3294 262.332 55.5534 261.676 56.0014C261.036 56.4494 260.716 57.1774 260.716 58.1854C260.716 60.0574 261.908 60.9934 264.292 60.9934H268.42L268.108 61.4014ZM285.992 66.5614C284.776 66.5614 283.68 66.2894 282.704 65.7454C281.744 65.1854 280.984 64.4254 280.424 63.4654C279.864 62.4894 279.584 61.3774 279.584 60.1294C279.584 58.8654 279.864 57.7534 280.424 56.7934C280.984 55.8334 281.744 55.0814 282.704 54.5374C283.664 53.9934 284.76 53.7214 285.992 53.7214C287.24 53.7214 288.344 53.9934 289.304 54.5374C290.28 55.0814 291.04 55.8334 291.584 56.7934C292.144 57.7534 292.424 58.8654 292.424 60.1294C292.424 61.3774 292.144 62.4894 291.584 63.4654C291.04 64.4254 290.28 65.1854 289.304 65.7454C288.328 66.2894 287.224 66.5614 285.992 66.5614ZM285.992 65.0494C286.904 65.0494 287.712 64.8494 288.416 64.4494C289.12 64.0334 289.672 63.4574 290.072 62.7214C290.488 61.9694 290.696 61.1054 290.696 60.1294C290.696 59.1374 290.488 58.2734 290.072 57.5374C289.672 56.8014 289.12 56.2334 288.416 55.8334C287.712 55.4174 286.912 55.2094 286.016 55.2094C285.12 55.2094 284.32 55.4174 283.616 55.8334C282.912 56.2334 282.352 56.8014 281.936 57.5374C281.52 58.2734 281.312 59.1374 281.312 60.1294C281.312 61.1054 281.52 61.9694 281.936 62.7214C282.352 63.4574 282.912 64.0334 283.616 64.4494C284.32 64.8494 285.112 65.0494 285.992 65.0494ZM302.347 66.4414V53.8414H307.915C309.339 53.8414 310.459 54.1134 311.275 54.6574C312.107 55.2014 312.523 56.0014 312.523 57.0574C312.523 58.0814 312.131 58.8734 311.347 59.4334C310.563 59.9774 309.531 60.2494 308.251 60.2494L308.587 59.7454C310.091 59.7454 311.195 60.0254 311.899 60.5854C312.603 61.1454 312.955 61.9534 312.955 63.0094C312.955 64.0974 312.555 64.9454 311.755 65.5534C310.971 66.1454 309.747 66.4414 308.083 66.4414H302.347ZM304.003 65.0974H308.011C309.083 65.0974 309.891 64.9294 310.435 64.5934C310.995 64.2414 311.275 63.6814 311.275 62.9134C311.275 62.1454 311.027 61.5854 310.531 61.2334C310.035 60.8814 309.251 60.7054 308.179 60.7054H304.003V65.0974ZM304.003 59.4334H307.795C308.771 59.4334 309.515 59.2494 310.027 58.8814C310.555 58.5134 310.819 57.9774 310.819 57.2734C310.819 56.5694 310.555 56.0414 310.027 55.6894C309.515 55.3374 308.771 55.1614 307.795 55.1614H304.003V59.4334ZM324.772 66.4414V63.6574L324.7 63.2014V58.5454C324.7 57.4734 324.396 56.6494 323.788 56.0734C323.196 55.4974 322.308 55.2094 321.124 55.2094C320.308 55.2094 319.532 55.3454 318.796 55.6174C318.06 55.8894 317.436 56.2494 316.924 56.6974L316.156 55.4254C316.796 54.8814 317.564 54.4654 318.46 54.1774C319.356 53.8734 320.3 53.7214 321.292 53.7214C322.924 53.7214 324.18 54.1294 325.06 54.9454C325.956 55.7454 326.404 56.9694 326.404 58.6174V66.4414H324.772ZM320.428 66.5614C319.484 66.5614 318.66 66.4094 317.956 66.1054C317.268 65.7854 316.74 65.3534 316.372 64.8094C316.004 64.2494 315.82 63.6094 315.82 62.8894C315.82 62.2334 315.972 61.6414 316.276 61.1134C316.596 60.5694 317.108 60.1374 317.812 59.8174C318.532 59.4814 319.492 59.3134 320.692 59.3134H325.036V60.5854H320.74C319.524 60.5854 318.676 60.8014 318.196 61.2334C317.732 61.6654 317.5 62.2014 317.5 62.8414C317.5 63.5614 317.78 64.1374 318.34 64.5694C318.9 65.0014 319.684 65.2174 320.692 65.2174C321.652 65.2174 322.476 65.0014 323.164 64.5694C323.868 64.1214 324.38 63.4814 324.7 62.6494L325.084 63.8254C324.764 64.6574 324.204 65.3214 323.404 65.8174C322.62 66.3134 321.628 66.5614 320.428 66.5614ZM336.221 66.5614C334.973 66.5614 333.853 66.2894 332.861 65.7454C331.885 65.1854 331.117 64.4254 330.557 63.4654C329.997 62.4894 329.717 61.3774 329.717 60.1294C329.717 58.8654 329.997 57.7534 330.557 56.7934C331.117 55.8334 331.885 55.0814 332.861 54.5374C333.853 53.9934 334.973 53.7214 336.221 53.7214C337.293 53.7214 338.261 53.9294 339.125 54.3454C339.989 54.7614 340.669 55.3854 341.165 56.2174L339.893 57.0814C339.461 56.4414 338.925 55.9694 338.285 55.6654C337.645 55.3614 336.949 55.2094 336.197 55.2094C335.301 55.2094 334.493 55.4174 333.773 55.8334C333.053 56.2334 332.485 56.8014 332.069 57.5374C331.653 58.2734 331.445 59.1374 331.445 60.1294C331.445 61.1214 331.653 61.9854 332.069 62.7214C332.485 63.4574 333.053 64.0334 333.773 64.4494C334.493 64.8494 335.301 65.0494 336.197 65.0494C336.949 65.0494 337.645 64.8974 338.285 64.5934C338.925 64.2894 339.461 63.8254 339.893 63.2014L341.165 64.0654C340.669 64.8814 339.989 65.5054 339.125 65.9374C338.261 66.3534 337.293 66.5614 336.221 66.5614Z" fill="#151515"/>
</svg>
