<svg width="89" height="97" viewBox="0 0 89 97" fill="none" xmlns="http://www.w3.org/2000/svg">
<g clip-path="url(#clip0_63_1107)">
<path d="M14.1205 96.8067C13.4888 96.6564 12.8495 96.5287 12.2253 96.3533C9.92303 95.7096 7.94539 94.5147 6.30485 92.7687C4.87405 91.2457 3.46823 89.6977 2.02246 88.1872C1.01865 87.1376 0.66907 85.9502 1.22091 84.5875C1.79523 83.1672 2.95135 82.6187 4.42209 82.6187C7.848 82.6187 11.2739 82.6187 14.7023 82.6187C15.0394 82.6187 15.374 82.6187 15.8959 82.6187C15.6137 82.288 15.4564 82.0826 15.2791 81.8947C13.1717 79.6227 12.068 76.9474 12.068 73.8363C12.0655 61.3365 12.063 48.8368 12.068 36.337C12.068 33.8621 13.6261 32.3016 16.0907 32.2915C18.9248 32.2815 21.7589 32.2915 24.5955 32.2915C24.9301 32.2915 25.2647 32.2915 25.6742 32.2915C25.5094 28.8673 27.145 26.1544 28.838 23.4991C30.044 21.6079 31.3674 19.7868 32.7308 18.0033C34.0792 16.2398 36.5463 16.1521 37.9221 17.853C40.3168 20.8138 42.5766 23.8974 44.0673 27.4319C44.6965 28.9224 44.9737 30.5606 45.4531 32.2915C46.5293 32.2915 47.8628 32.2915 49.1962 32.2915C51.004 32.2915 52.8094 32.2865 54.6172 32.2915C57.1542 32.2991 58.6948 33.8045 58.7148 36.3646C58.7423 39.864 58.7223 43.3634 58.7223 46.8654C58.7223 47.6419 58.7223 48.421 58.7223 49.3653C59.0219 49.1073 59.1967 48.9595 59.369 48.8092C60.9796 47.3814 63.0946 47.5968 64.3131 49.3753C66.4731 52.5291 67.8614 55.9559 67.7665 59.8661C67.764 59.9889 67.7865 60.1091 67.7965 60.2043C69.1524 59.9513 70.4758 59.6357 71.8167 59.4678C74.3262 59.1547 76.7857 59.5254 79.1929 60.2469C81.5875 60.9633 82.4265 63.4532 80.9108 65.4572C78.5212 68.6184 75.5123 70.9506 71.6294 72.1454C71.7867 72.3859 71.9091 72.5963 72.0514 72.7917C74.3387 75.9129 75.1777 79.49 75.2176 83.28C75.2401 85.3691 73.3973 86.7694 71.3422 86.3636C71.13 86.321 70.8903 86.311 70.7105 86.2057C69.1124 85.2739 67.357 85.4292 65.6191 85.4317C62.1932 85.4392 58.7648 85.4167 55.3388 85.4492C54.7695 85.4543 54.1727 85.597 53.6359 85.8025C52.0153 86.4187 50.4347 86.9172 48.904 85.572C48.7292 85.4192 48.3746 85.4392 48.1025 85.4392C33.6497 85.4342 19.1945 85.4317 4.74171 85.4467C4.43707 85.4467 4.13493 85.6196 3.8328 85.7123C3.98012 85.9703 4.08749 86.2634 4.28476 86.4763C5.59319 87.9016 6.91662 89.3119 8.24253 90.7222C10.2951 92.9065 12.8121 94.0012 15.811 93.9987C35.2478 93.9962 54.6871 93.9962 74.1239 93.9987C77.0829 93.9987 79.5899 92.9441 81.625 90.7873C82.9958 89.3344 84.3592 87.8766 85.7101 86.4061C85.8849 86.2158 85.9698 85.9427 86.0971 85.7098C85.825 85.6171 85.5528 85.4518 85.2781 85.4467C83.7524 85.4217 82.2267 85.4417 80.6986 85.4292C79.54 85.4192 78.9706 84.9608 78.9557 84.0615C78.9407 83.1347 79.545 82.6312 80.736 82.6237C82.3566 82.6111 83.9747 82.6136 85.5952 82.6237C87.031 82.6337 88.1472 83.2098 88.704 84.5875C89.2359 85.9077 88.9387 87.0875 87.9649 88.1195C86.4867 89.6851 85.0384 91.2783 83.5527 92.8364C81.5725 94.9105 79.1679 96.193 76.3313 96.6439C76.1515 96.6715 75.9792 96.7541 75.8044 96.8092H14.1205V96.8067ZM33.9693 40.9762C30.5634 40.2773 28.1138 38.5038 26.5757 35.4778C26.4608 35.2524 25.9714 35.1196 25.6543 35.1171C22.6329 35.0896 19.6115 35.0996 16.5901 35.1021C15.0294 35.1021 14.8696 35.2599 14.8696 36.8055C14.8696 48.9921 14.8696 61.1787 14.8696 73.3678C14.8696 78.9113 18.5228 82.6036 24.0437 82.6161C31.6122 82.6312 39.1831 82.6212 46.7516 82.6161C47.1461 82.6161 47.5431 82.5836 47.9527 82.566C48.0575 81.5841 48.1524 80.6999 48.2523 79.7555C48.0251 79.7555 47.8752 79.7555 47.7229 79.7555C39.6875 79.763 31.6496 79.7905 23.6142 79.768C20.2232 79.758 17.7487 77.223 17.6888 73.8237C17.6763 73.0748 17.6863 72.3233 17.6863 71.5743C17.6863 63.0424 17.6863 54.513 17.6863 45.9811C17.6863 44.6786 18.1257 44.1199 19.2369 44.1149C22.3832 44.0949 25.5294 44.0974 28.6757 44.1149C29.627 44.1199 30.2088 44.6836 30.2063 45.5127C30.2013 46.3343 29.617 46.8979 28.6657 46.913C27.2024 46.9355 25.7367 46.9205 24.2734 46.9205C23.0399 46.9205 21.8039 46.9205 20.4904 46.9205C20.4904 47.3714 20.4904 47.7095 20.4904 48.0477C20.4904 56.4544 20.4904 64.8585 20.4904 73.2651C20.4904 75.8477 21.6091 76.97 24.191 76.97C31.6346 76.97 39.0807 76.97 46.5244 76.97C46.8989 76.97 47.3134 77.0501 47.6355 76.9149C48.2423 76.6618 48.9814 76.4139 49.331 75.9229C50.0576 74.9059 50.4297 73.711 50.2824 72.3909C50.2274 71.9049 50.1425 71.6244 49.6431 71.4165C46.5993 70.1465 44.2246 68.0172 42.2669 65.4046C41.9273 64.9512 41.6801 64.355 41.6027 63.7939C41.3655 62.1131 42.2969 60.6677 43.9774 60.2744C46.02 59.7935 48.1025 59.4803 50.19 59.0896V46.918C49.778 46.918 49.4409 46.918 49.1038 46.918C44.6816 46.918 40.2568 46.9205 35.8346 46.918C34.4613 46.918 33.9818 46.4345 33.9743 45.0568C33.9643 43.7166 33.9743 42.3765 33.9743 40.9812L33.9693 40.9762ZM55.4612 60.3546C55.616 57.3837 55.7983 54.5005 55.9007 51.6148C55.9656 49.7736 55.9132 47.93 55.9132 46.0863C55.9132 42.9 55.9181 39.7137 55.9107 36.5299C55.9082 35.4152 55.641 35.1096 54.6572 35.1071C51.4185 35.0971 48.1799 35.0896 44.9437 35.1246C44.6591 35.1271 44.2496 35.3827 44.1122 35.6357C42.6415 38.3836 40.4266 40.1371 37.3903 40.8359C37.1905 40.881 36.9957 40.9537 36.8434 40.9988V44.1024C37.2529 44.1024 37.59 44.1024 37.9296 44.1024C42.2894 44.1024 46.6467 44.1024 51.0065 44.1024C52.7095 44.1024 53.0641 44.4656 53.0665 46.2041C53.069 48.922 53.0665 51.6398 53.0665 54.3552C53.0665 56.1012 53.0665 57.8471 53.0665 59.6281C53.8531 59.8661 54.5897 60.0916 55.4612 60.3546ZM62.1582 74.6955C65.4043 74.6955 68.0362 72.0903 68.0786 68.8339C68.1186 65.5774 65.4343 62.8645 62.1657 62.8645C58.8946 62.8645 56.2153 65.5649 56.2502 68.8288C56.2852 72.0828 58.9171 74.698 62.1607 74.698L62.1582 74.6955ZM33.9743 32.254C33.9743 31.6302 33.9444 31.0992 33.9818 30.5731C34.0442 29.6989 34.636 29.1253 35.4026 29.1353C36.1717 29.1453 36.7285 29.7365 36.766 30.6132C36.7885 31.1568 36.771 31.7054 36.771 32.2515H42.202C42.5491 30.8837 42.1571 29.6213 41.5128 28.5516C39.7474 25.6208 37.8472 22.7702 35.9819 19.8995C35.6174 19.3384 35.1804 19.3885 34.7859 19.9145C34.4113 20.413 33.9843 20.8789 33.6597 21.4075C32.0866 23.9801 30.4985 26.5477 29.0028 29.1679C28.4809 30.0822 28.3136 31.1518 28.6007 32.259H33.9768L33.9743 32.254ZM55.2864 63.3981C51.7781 61.7248 48.2873 61.9152 44.769 62.9547C44.1797 63.1276 44.307 63.5534 44.6266 63.8966C45.5405 64.8735 46.4195 65.8905 47.4133 66.7773C49.1113 68.2953 51.1239 69.2096 53.4536 69.6279C53.3437 67.3083 53.9355 65.2568 55.2864 63.4006V63.3981ZM54.5548 73.0597C51.8605 75.9655 50.8742 79.3547 50.7718 83.0746C50.7593 83.563 51.0115 83.7659 51.4934 83.5755C52.0428 83.3601 52.5971 83.1622 53.1315 82.9142C55.8357 81.6592 58.1155 79.9158 59.6112 77.1704C57.4513 76.4089 55.7583 75.1088 54.5523 73.0597H54.5548ZM64.9174 60.4648C65.1746 56.8476 63.9311 53.7916 61.9809 50.9635C61.6039 50.4149 61.2593 50.7831 61.0695 51.1639C60.2829 52.7445 59.434 54.3026 58.7897 55.9408C58.1854 57.4789 58.128 59.1297 58.3253 60.8931C60.5077 59.9763 62.6626 59.8135 64.9174 60.4648ZM69.2822 73.8262C67.8489 75.7526 66.0111 76.8823 63.8287 77.3883C63.8287 77.5085 63.8162 77.5461 63.8287 77.5686C65.669 80.6472 68.4931 82.4258 71.7692 83.5956C72.2961 83.7835 72.4384 83.4277 72.4185 82.9894C72.2686 79.6803 71.5545 76.5617 69.2797 73.8212L69.2822 73.8262ZM70.8903 69.2697C71.1225 69.2497 71.2499 69.2597 71.3647 69.2246C74.4336 68.2853 76.7183 66.2788 78.641 63.7964C79.0505 63.2678 78.7359 62.9672 78.219 62.8896C76.4461 62.6241 74.6708 62.2358 72.8879 62.1982C71.542 62.1707 70.1861 62.609 68.603 62.8796C70.2486 64.8886 70.9028 66.9201 70.8903 69.2672V69.2697ZM36.8259 38.0529C38.6637 37.6572 40.0071 36.7078 41.1233 35.1597H36.8259V38.0529ZM33.9344 35.1647H29.637C30.7906 36.7078 32.119 37.6672 33.9344 38.0554V35.1647ZM64.1908 82.5585C63.2669 81.4764 62.4304 80.4969 61.5914 79.5125C60.7299 80.5245 59.8984 81.5014 58.9995 82.5585H64.1908Z" fill="#D4262C"/>
<path d="M67.2447 7.52003C65.0048 7.52003 62.7625 7.51001 60.5227 7.52504C59.1443 7.53255 58.5475 8.1112 58.4377 9.49143C58.2454 11.8837 56.6997 13.5119 54.3151 13.8375C51.9354 14.1607 51.3361 14.847 51.3336 17.2393C51.3336 17.7377 51.3661 18.2438 51.3112 18.7372C51.2338 19.4386 50.8118 19.8695 50.1026 19.9496C49.3935 20.0298 48.8966 19.7066 48.6419 19.0453C47.6655 16.5128 49.0339 12.8631 51.461 11.6758C52.1127 11.3576 52.8693 11.1923 53.5959 11.0996C55.0242 10.9193 55.5162 10.4859 55.6535 9.06809C55.9107 6.43788 57.7235 4.7295 60.3579 4.71698C64.9324 4.69443 69.507 4.70445 74.084 4.71197C75.1777 4.71197 75.8094 5.24803 75.802 6.11474C75.7945 6.98397 75.1627 7.51251 74.064 7.51752C71.7917 7.52754 69.5194 7.52003 67.2472 7.52253L67.2447 7.52003Z" fill="#D4262C"/>
<path d="M52.2295 2.40987C52.1896 4.67435 50.2893 6.60066 47.9147 6.78853C46.0918 6.93132 45.4276 7.55004 45.1155 9.3987C44.9657 10.2804 44.3864 10.7965 43.6048 10.7389C42.8332 10.6837 42.3338 10.0775 42.3263 9.18828C42.3039 6.51299 44.5562 4.17837 47.3429 3.993C48.7462 3.90032 49.1956 3.49702 49.4403 2.11178C49.5902 1.25258 50.2119 0.72904 50.976 0.814209C51.7426 0.901883 52.2445 1.54065 52.2295 2.40987Z" fill="#D4262C"/>
</g>
<defs>
<clipPath id="clip0_63_1107">
<rect width="88" height="96" fill="white" transform="translate(0.960938 0.806641)"/>
</clipPath>
</defs>
</svg>
