<svg width="22" height="23" viewBox="0 0 22 23" fill="none" xmlns="http://www.w3.org/2000/svg">
<path d="M14.5303 14.8891C15.0542 15.0638 15.6205 14.7806 15.7952 14.2567C15.9698 13.7327 15.6867 13.1664 15.1627 12.9917L14.5303 14.8891ZM11.2465 12.7404H10.2465C10.2465 13.1709 10.5219 13.553 10.9303 13.6891L11.2465 12.7404ZM12.2465 7.72269C12.2465 7.1704 11.7988 6.72269 11.2465 6.72269C10.6942 6.72269 10.2465 7.1704 10.2465 7.72269H12.2465ZM15.1627 12.9917L11.5627 11.7917L10.9303 13.6891L14.5303 14.8891L15.1627 12.9917ZM12.2465 12.7404V7.72269H10.2465V12.7404H12.2465ZM19.8465 11.5404C19.8465 16.2901 15.9961 20.1404 11.2465 20.1404V22.1404C17.1007 22.1404 21.8465 17.3946 21.8465 11.5404H19.8465ZM11.2465 20.1404C6.49683 20.1404 2.64648 16.2901 2.64648 11.5404H0.646484C0.646484 17.3946 5.39227 22.1404 11.2465 22.1404V20.1404ZM2.64648 11.5404C2.64648 6.79078 6.49683 2.94043 11.2465 2.94043V0.94043C5.39227 0.94043 0.646484 5.68621 0.646484 11.5404H2.64648ZM11.2465 2.94043C15.9961 2.94043 19.8465 6.79078 19.8465 11.5404H21.8465C21.8465 5.68621 17.1007 0.94043 11.2465 0.94043V2.94043Z" fill="#151515"/>
</svg>
