<svg width="25" height="25" viewBox="0 0 25 25" fill="none" xmlns="http://www.w3.org/2000/svg">
<path d="M13.2015 6.95083C14.4014 7.15193 15.4914 7.71865 16.3615 8.58702C17.2317 9.45538 17.795 10.5431 18.0011 11.7406M13.3848 3.0249C15.5189 3.38596 17.4653 4.396 19.0132 5.93621C20.5611 7.48098 21.5687 9.42338 21.9305 11.5532M20.2634 20.0266C20.2634 20.0266 19.1048 21.1646 18.8208 21.4982C18.3583 21.9918 17.8133 22.2249 17.0989 22.2249C17.0302 22.2249 16.9569 22.2249 16.8882 22.2203C15.528 22.1335 14.264 21.6033 13.316 21.1509C10.7239 19.8986 8.4478 18.1207 6.55639 15.8676C4.99471 13.9891 3.95054 12.2524 3.25901 10.3877C2.83309 9.2497 2.67738 8.36306 2.74608 7.52668C2.79188 6.99195 2.99796 6.54863 3.37808 6.16929L4.93975 4.61081C5.16416 4.40057 5.4023 4.28631 5.63587 4.28631C5.92439 4.28631 6.15795 4.45999 6.3045 4.60624C6.30908 4.61081 6.31366 4.61538 6.31824 4.61995C6.59761 4.88046 6.86323 5.15011 7.14259 5.43804C7.28456 5.58429 7.43111 5.73054 7.57766 5.88136L8.82792 7.12907C9.31337 7.61352 9.31337 8.06141 8.82792 8.54587C8.69511 8.67841 8.56688 8.81095 8.43406 8.93892C8.04937 9.33197 8.35157 9.03039 7.95314 9.38687C7.94398 9.39601 7.93482 9.40058 7.93024 9.40972C7.53638 9.80277 7.60966 10.1867 7.69209 10.4472C7.69667 10.4609 7.70125 10.4746 7.70583 10.4883C8.03099 11.2744 8.48896 12.0148 9.18507 12.8969L9.18965 12.9015C10.4537 14.4554 11.7863 15.6665 13.2564 16.5943C13.4442 16.7131 13.6365 16.8091 13.8197 16.9005C13.9846 16.9828 14.1403 17.0605 14.2731 17.1427C14.2914 17.1519 14.3098 17.1656 14.3281 17.1747C14.4838 17.2524 14.6303 17.289 14.7815 17.289C15.1616 17.289 15.3997 17.0513 15.4776 16.9736L16.3753 16.0778C16.531 15.9224 16.7783 15.735 17.0668 15.735C17.3507 15.735 17.5843 15.9133 17.7263 16.0686C17.7308 16.0732 17.7308 16.0732 17.7354 16.0778L20.2588 18.596C20.7306 19.0622 20.2634 20.0266 20.2634 20.0266Z" stroke="#151515" stroke-width="2" stroke-linecap="round" stroke-linejoin="round"/>
</svg>
