<svg width="93" height="106" viewBox="0 0 93 106" fill="none" xmlns="http://www.w3.org/2000/svg">
<g clip-path="url(#clip0_63_1100)">
<path d="M73.617 105.807C72.4925 105.207 72.1513 104.163 71.9415 103.026C71.3317 99.7275 69.7933 96.9769 66.8955 95.0756C66.1459 94.5825 65.3431 94.1606 64.5375 93.7579C63.69 93.3333 63.1529 92.7333 63.1306 91.7717C63.1082 90.7663 63.6313 90.0896 64.5347 89.6869C68.6493 87.8568 71.1527 84.7967 71.9471 80.4161C72.0366 79.9148 72.1681 79.4107 72.3611 78.9368C72.7051 78.0902 73.3764 77.6601 74.3162 77.6629C75.2617 77.6656 75.9721 78.1204 76.2491 78.9696C76.6938 80.3339 77.0434 81.7284 77.3595 83.1256C77.5301 83.8817 77.1469 84.4817 76.4197 84.7721C75.533 85.1255 74.8701 84.7447 74.2659 83.857C72.982 87.3089 70.6772 89.8184 67.4046 91.706C70.6129 93.588 72.954 96.0619 74.2939 99.6562C75.6449 96.0646 77.9749 93.5826 81.1552 91.7443C80.6349 91.3936 80.1622 91.1115 79.7287 90.7772C78.9902 90.2047 78.8364 89.3883 79.2951 88.6924C79.779 87.9609 80.6433 87.7856 81.4964 88.2568C82.3775 88.7417 83.2362 89.265 84.1341 89.7198C84.9956 90.1553 85.4851 90.8238 85.4767 91.7525C85.4684 92.6347 85.0012 93.2949 84.1761 93.7086C83.4321 94.0812 82.6796 94.451 81.9803 94.8921C79.0937 96.7139 77.4238 99.3275 76.7469 102.604C76.4896 103.859 76.3469 105.22 74.8701 105.809H73.6142L73.617 105.807Z" fill="#D4262C"/>
<path d="M6.99471 46.7085H29.5842C25.7969 40.2841 22.0684 33.9584 18.2643 27.504C17.2517 29.2107 16.3846 30.8024 15.3749 32.3037C15.0588 32.7749 14.3847 33.2379 13.8337 33.29C12.6757 33.3968 11.9708 32.0846 12.5862 31.0024C13.87 28.734 15.2071 26.4931 16.5692 24.2658C17.1035 23.3946 17.965 22.9508 19.0167 22.907C19.3664 22.8933 19.7132 22.8905 20.0628 22.8905C37.6176 22.8905 55.1751 22.9124 72.7298 22.8604C74.7241 22.8549 75.9632 23.5672 76.9366 25.2466C81.012 32.2845 85.1769 39.2732 89.3083 46.2838C90.3712 48.0865 90.2873 48.8481 88.8663 50.4041C75.5101 65.0253 62.1567 79.6465 48.8004 94.2649C47.0942 96.1333 45.6844 96.136 43.9978 94.284C30.6751 79.6766 17.358 65.0691 4.03816 50.4617C2.52212 48.7988 2.45779 48.144 3.613 46.1852C5.32204 43.2867 7.02269 40.3855 8.73452 37.4898C9.40024 36.3638 10.2422 36.0296 11.1065 36.5145C11.9764 37.0048 12.1134 37.9007 11.4617 39.0102C10.1443 41.2622 8.81564 43.5059 7.4954 45.7551C7.32757 46.04 7.18492 46.3413 6.99471 46.7057V46.7085ZM58.3918 49.8727C57.2897 49.8508 56.3191 49.7193 56.1149 48.5549C55.9135 47.4153 56.7359 46.9495 57.7121 46.6345C53.9527 40.2595 50.2326 33.9557 46.4229 27.4985C42.602 33.9831 38.8847 40.2896 35.0778 46.7495C35.654 46.7495 36.0288 46.7495 36.4036 46.7495C40.6972 46.7495 44.988 46.755 49.2815 46.7441C50.1962 46.7441 50.9626 46.9413 51.2339 47.9139C51.536 49.007 50.7864 49.8179 49.4522 49.8206C44.8453 49.8316 40.2385 49.8261 35.6344 49.8261C35.2708 49.8261 34.91 49.8261 34.44 49.8261C38.4119 63.1049 42.3391 76.2329 46.2662 89.3583C46.3502 89.3528 46.4369 89.3473 46.5208 89.3391C50.4703 76.2083 54.4226 63.0775 58.3946 49.8727H58.3918ZM61.6784 49.859C57.8911 62.4419 54.1038 75.0357 50.3137 87.6296C50.3864 87.6652 50.4591 87.7008 50.5318 87.7365C62.0224 75.159 73.513 62.5789 85.135 49.859H61.6784ZM7.68001 49.8234C19.3216 62.5898 30.7814 75.1563 42.2412 87.7228C41.5335 84.512 40.6105 81.4409 39.693 78.3698C36.9462 69.173 34.2023 59.9735 31.4499 50.7767C31.3129 50.3165 31.2989 49.8014 30.5101 49.8069C23.0082 49.8371 15.5091 49.8234 7.6828 49.8234H7.68001ZM85.9238 46.7112C82.1141 40.254 78.3911 33.942 74.5899 27.4958C70.7606 33.9968 67.0432 40.3006 63.2671 46.7112H85.9266H85.9238ZM21.0279 26.0246C24.8179 32.4517 28.5325 38.7527 32.345 45.2154C36.1603 38.7445 39.8748 32.4434 43.6593 26.0246H21.0279ZM71.8179 26.0328H49.1976C52.9933 32.4708 56.7135 38.7801 60.5064 45.2154C64.3021 38.7774 68.0222 32.4681 71.8151 26.0328H71.8179Z" fill="#D4262C"/>
<path d="M17.8728 11.8059C17.5819 12.1347 17.2155 12.8881 16.6169 13.1702C13.6491 14.5674 11.9177 16.7865 11.3611 19.9644C11.115 21.3671 10.4409 21.9396 9.36956 21.9561C8.41294 21.9698 7.78079 21.5013 7.46472 20.6438C7.2885 20.1644 7.17102 19.6603 7.07032 19.1617C6.53328 16.4796 4.91375 14.6249 2.46347 13.4387C1.55441 13.0004 0.829954 12.4689 0.827157 11.4005C0.82436 10.3375 1.52644 9.79506 2.4383 9.35125C4.88298 8.16775 6.52209 6.32401 7.05914 3.63922C7.15144 3.17075 7.2857 2.7105 7.42556 2.25299C7.70807 1.33523 8.34581 0.798271 9.33319 0.806489C10.3178 0.814708 10.9499 1.35167 11.2185 2.28039C11.3415 2.70776 11.4786 3.1324 11.5625 3.56525C12.1023 6.33223 13.7862 8.21158 16.3204 9.40604C17.2127 9.82794 17.7861 10.4197 17.87 11.8032L17.8728 11.8059ZM13.0673 11.3895C11.8142 10.0115 10.494 8.56225 9.33039 7.28286C8.09127 8.63074 6.77942 10.0608 5.56547 11.3785C6.8018 12.7346 8.12763 14.1894 9.31921 15.4989C10.5276 14.1729 11.8366 12.7401 13.0673 11.3895Z" fill="#D4262C"/>
<path d="M86.6399 15.7564C87.3979 15.803 88.0413 16.3317 88.1923 17.2194C88.5727 19.4439 89.7111 21.0027 91.8174 22.0109C93.2103 22.6794 93.1516 24.545 91.7362 25.2244C89.7531 26.1806 88.6287 27.6462 88.2482 29.7612C88.0413 30.9009 87.2944 31.4871 86.335 31.4378C85.2665 31.383 84.6847 30.7474 84.5197 29.7667C84.1644 27.649 83.0204 26.186 81.0401 25.2272C79.5716 24.5149 79.566 22.6629 81.0317 21.9616C83.0652 20.9918 84.1644 19.4741 84.5477 17.3262C84.7379 16.255 85.4819 15.7263 86.6399 15.7537V15.7564ZM86.3854 25.6518C87.0651 24.9231 87.686 24.2574 88.3126 23.5889C87.6413 22.8821 86.9979 22.2027 86.3686 21.5397C85.7001 22.2602 85.0763 22.9314 84.4581 23.5999C85.1043 24.2875 85.728 24.9532 86.3854 25.6518Z" fill="#D4262C"/>
</g>
<defs>
<clipPath id="clip0_63_1100">
<rect width="92" height="105" fill="white" transform="translate(0.827148 0.806641)"/>
</clipPath>
</defs>
</svg>
