<svg width="84" height="97" viewBox="0 0 84 97" fill="none" xmlns="http://www.w3.org/2000/svg">
<g clip-path="url(#clip0_63_1083)">
<path d="M55.6798 26.4257C56.0801 26.0464 56.3342 25.8194 56.5729 25.5794C60.8539 21.2709 65.1196 16.9443 69.416 12.6513C72.4599 9.60955 76.8154 9.24061 80.0775 11.6864C83.7554 14.4444 84.4355 19.6662 81.5738 23.273C81.235 23.6987 80.85 24.0908 80.465 24.4778C72.4522 32.5556 64.442 40.6335 56.4112 48.6932C55.8697 49.2376 55.6592 49.7742 55.6618 50.5456C55.6875 62.256 55.6875 73.9639 55.6772 85.6743C55.6721 90.9864 52.4433 95.2175 47.4924 96.4765C40.9169 98.1483 34.3362 93.2 34.1874 86.3734C34.0873 81.7295 34.1617 77.083 34.1566 72.4391C34.1566 72.0934 34.1566 71.7451 34.1566 71.2085C33.7844 71.549 33.5303 71.7657 33.2968 72.0005C28.9927 76.3323 24.7116 80.6872 20.3818 84.9931C16.1907 89.1624 9.4637 87.9756 7.18973 82.6583C5.86539 79.5624 6.371 76.6728 8.48328 74.0696C8.7656 73.7213 9.09412 73.4092 9.41237 73.0918C17.4046 65.0398 25.3918 56.9826 33.3994 48.9461C33.9384 48.4069 34.1771 47.8831 34.1745 47.104C34.1489 35.3626 34.1463 23.6213 34.1617 11.8799C34.1668 6.6297 37.4007 2.39342 42.3028 1.14214C48.9425 -0.555464 55.5104 4.38772 55.6515 11.2839C55.7465 15.9278 55.6772 20.5743 55.6798 25.2183C55.6798 25.5562 55.6798 25.8968 55.6798 26.4257ZM52.605 59.5987V58.4841C52.605 44.3254 52.605 30.164 52.605 16.0052C52.605 14.4573 52.6358 12.9067 52.5896 11.3613C52.4639 7.24373 49.076 3.93107 44.9977 3.89753C40.6346 3.86141 37.239 7.32887 37.2365 11.8773C37.2262 27.4886 37.2313 43.0999 37.2313 58.7112C37.2313 58.9924 37.2313 59.2736 37.2313 59.6013H52.605V59.5987ZM37.3417 68.9871C37.298 69.0903 37.2519 69.1471 37.2519 69.2013C37.2493 74.9726 37.1569 80.7466 37.2827 86.5153C37.3673 90.4085 40.7578 93.5792 44.6204 93.7082C49.0709 93.8553 52.5845 90.3775 52.5999 85.762C52.6178 80.4731 52.605 75.1868 52.605 69.8979C52.605 69.5908 52.605 69.2864 52.605 68.9871H37.3417ZM55.6798 44.9523C55.8902 44.8078 55.9518 44.782 55.9954 44.7356C63.6258 37.0525 71.269 29.3797 78.8763 21.6734C80.8423 19.6817 80.7756 16.547 78.8532 14.6198C76.8924 12.6539 73.8022 12.641 71.7798 14.6637C66.5543 19.8907 61.3544 25.1434 56.1674 30.4065C55.8928 30.6852 55.708 31.1754 55.7003 31.5727C55.6515 33.5076 55.6798 35.4426 55.6798 37.3776C55.6798 39.8517 55.6798 42.3259 55.6798 44.9523ZM34.1566 52.6173C33.8794 52.8624 33.7588 52.9579 33.651 53.0662C26.113 60.659 18.5647 68.2441 11.0421 75.8524C9.02482 77.8931 9.02739 81.002 10.9651 82.9756C12.9029 84.9467 16.0136 84.988 18.036 82.9679C23.2898 77.7254 28.505 72.4443 33.7254 67.1683C33.9307 66.9619 34.136 66.6342 34.136 66.3607C34.1617 61.851 34.154 57.3412 34.154 52.6173H34.1566ZM52.5229 65.8267V62.8133H37.3057V65.8267H52.5229Z" fill="#D4262C"/>
<path d="M29.5783 12.0242C29.2857 12.2977 28.9007 12.9556 28.3669 13.1104C24.3784 14.2765 21.8504 16.9003 20.5003 20.7858C20.4054 21.0592 20.3438 21.3998 20.1487 21.5675C19.7355 21.9183 19.2453 22.4085 18.7859 22.4085C18.3265 22.4085 17.7464 21.9751 17.4384 21.5649C17.0663 21.0695 16.92 20.3988 16.6787 19.8028C15.3287 16.4953 12.9598 14.2972 9.56937 13.2523C8.7301 12.9943 8.05766 12.6357 8.04226 11.663C8.02686 10.693 8.6685 10.2957 9.51804 10.0377C12.947 8.99279 15.339 6.77919 16.6916 3.43041C16.92 2.86283 17.0535 2.21784 17.4205 1.76119C17.7618 1.33549 18.347 0.884003 18.8372 0.871103C19.2787 0.858203 19.833 1.34065 20.1641 1.75087C20.4926 2.15592 20.6107 2.73899 20.8083 3.24724C22.1583 6.71727 24.5991 9.00311 28.1461 10.0635C28.9751 10.3111 29.4961 10.7549 29.5808 12.0242H29.5783ZM14.0788 11.6398C15.6188 13.242 17.2819 14.9731 18.7808 16.5314C20.3284 14.9318 21.9967 13.2084 23.5058 11.6476C21.9556 10.0377 20.2925 8.30652 18.7859 6.74049C17.2639 8.32458 15.6188 10.0377 14.0762 11.6424L14.0788 11.6398Z" fill="#D4262C"/>
<path d="M18.7963 28.9848C18.6294 29.2015 18.3779 29.6891 17.9852 30.0013C17.5412 30.3547 16.9791 30.556 16.4607 30.8088C13.9275 32.0472 12.1181 33.9563 11.1351 36.6266C10.8553 37.3825 10.4472 37.9527 9.57717 37.9604C8.70711 37.9682 8.28106 37.4109 8.00387 36.6524C7.03885 34.0157 5.26792 32.1091 2.77836 30.863C2.34974 30.6488 1.92369 30.4244 1.48994 30.2206C0.838036 29.9084 0.358089 29.4698 0.347823 28.6906C0.337557 27.9115 0.802104 27.4574 1.45658 27.1478C1.91856 26.9285 2.37541 26.6938 2.83225 26.4641C5.28075 25.2206 7.02345 23.3295 7.99617 20.7367C8.02954 20.6464 8.03467 20.5199 8.09884 20.4709C8.57622 20.102 9.0613 19.4725 9.54894 19.4673C10.0366 19.4622 10.8014 19.9885 10.9734 20.4554C12.1437 23.6314 14.3664 25.6979 17.3821 27.0111C18.111 27.3284 18.7552 27.7386 18.7963 28.9848ZM5.58874 28.6674C6.91565 29.9574 8.29646 31.3016 9.55664 32.527C10.899 31.2319 12.2695 29.9084 13.5476 28.6752C12.2413 27.4058 10.8579 26.0617 9.56947 24.8104C8.26053 26.0797 6.89255 27.4058 5.59131 28.67L5.58874 28.6674Z" fill="#D4262C"/>
<path d="M49.5303 31.7094C49.5303 38.4172 49.538 45.1251 49.5251 51.8356C49.52 53.8866 48.3522 55.5636 46.5248 56.2499C44.7205 56.9284 42.7391 56.4253 41.4584 54.9547C40.7116 54.0982 40.3137 53.0946 40.3137 51.9542C40.3086 38.5049 40.3009 25.0557 40.3189 11.6064C40.3214 9.02384 42.3927 6.99858 44.9104 6.99342C47.4719 6.98826 49.5149 9.02642 49.5251 11.6812C49.5457 18.3581 49.5328 25.0324 49.5328 31.7094H49.5303ZM43.3833 31.6707C43.3833 38.2521 43.3833 44.8336 43.3833 51.415C43.3833 52.7231 43.9352 53.4429 44.9181 53.4429C45.8986 53.4429 46.4478 52.7205 46.4555 51.415C46.4555 51.317 46.4555 51.2215 46.4555 51.1235C46.4555 38.2186 46.4555 25.3137 46.4555 12.4087C46.4555 12.0862 46.4863 11.756 46.4299 11.4438C46.2784 10.6105 45.7677 10.1048 44.9181 10.1074C44.0686 10.1074 43.5553 10.6105 43.4064 11.4438C43.35 11.756 43.3833 12.0862 43.3808 12.4087C43.3808 18.8277 43.3808 25.2492 43.3808 31.6681L43.3833 31.6707Z" fill="#D4262C"/>
</g>
<defs>
<clipPath id="clip0_63_1083">
<rect width="83" height="96" fill="white" transform="translate(0.347656 0.806641)"/>
</clipPath>
</defs>
</svg>
