<svg width="109" height="97" viewBox="0 0 109 97" fill="none" xmlns="http://www.w3.org/2000/svg">
<g clip-path="url(#clip0_63_1090)">
<path d="M108.961 8.39578C108.467 9.38966 107.656 9.72095 106.554 9.70146C103.817 9.65413 101.08 9.68754 98.1769 9.68754V11.0628C98.1769 29.3313 98.1741 47.597 98.1797 65.8655C98.1797 69.0003 97.072 71.5559 94.1041 72.9173C92.9429 73.4518 91.5449 73.5771 90.2371 73.6857C88.7095 73.811 87.1621 73.7163 85.5499 73.7163C85.5499 74.2286 85.5499 74.6072 85.5499 74.983C85.5499 81.4781 85.5443 87.9703 85.5584 94.4653C85.5584 95.3868 85.4541 96.2387 84.493 96.648C83.5037 97.0683 82.7539 96.6006 82.0606 95.913C79.0645 92.9313 76.0515 89.9664 72.7144 86.673C72.5114 87.0377 72.3931 87.4413 72.1309 87.703C69.3885 90.4453 66.6151 93.1568 63.867 95.8935C63.1765 96.5811 62.4381 97.0683 61.4403 96.6563C60.4707 96.2554 60.358 95.3924 60.3608 94.4792C60.3664 88.0204 60.3636 81.5616 60.3636 75.0999C60.3636 74.6907 60.3636 74.2815 60.3636 73.7191C59.8168 73.7191 59.3715 73.7191 58.929 73.7191C42.2631 73.7191 25.5972 73.7107 8.9313 73.7302C6.32417 73.733 4.09472 73.0175 2.4487 70.9184C1.53832 69.7575 1.06199 68.4351 0.966162 66.9791C0.878788 65.6539 1.59187 64.8744 2.95604 64.8605C5.45324 64.8354 7.94763 64.8521 10.4448 64.8521C10.8253 64.8521 11.2058 64.8521 11.7216 64.8521C11.7216 64.3232 11.7216 63.8861 11.7216 63.449C11.7216 45.1805 11.7244 26.9148 11.7188 8.64633C11.7188 5.50879 12.8519 2.97815 15.8141 1.60008C16.8852 1.10175 18.176 0.862323 19.3683 0.859539C46.6882 0.814996 74.0081 0.834484 101.325 0.806644C104.628 0.80386 108.045 2.65242 108.961 6.93697V8.39578ZM58.4893 68.4407H5.1122C6.09023 69.9134 7.40366 70.1584 8.87211 70.1584C25.6423 70.1473 42.4125 70.1528 59.1827 70.15C59.5519 70.15 59.9211 70.1083 60.3016 70.0832C60.3524 69.468 60.3946 68.9668 60.4369 68.4546H64.0136V90.7348C66.5644 88.2041 68.8896 85.8879 71.2262 83.5827C72.5453 82.2826 73.3683 82.2938 74.7043 83.6078C76.8689 85.7403 79.0279 87.8812 81.1925 90.0165C81.3898 90.2114 81.6181 90.3784 81.9873 90.6902V68.4574H85.5105C85.5415 69.0225 85.5668 69.5264 85.595 70.0609C87.6863 70.0609 89.7185 70.1417 91.7394 70.0248C92.6554 69.9719 93.4587 69.4151 93.9322 68.3627H87.4496V64.7964H94.5748V63.3181C94.5748 45.6427 94.5748 27.9672 94.5748 10.2889C94.5748 8.32061 94.3775 6.32449 95.5669 4.38406C94.9891 4.38406 94.6115 4.38406 94.2338 4.38406C69.4111 4.38406 44.5912 4.38406 19.7685 4.38406C16.6259 4.38406 15.3265 5.65355 15.3265 8.72707C15.3265 27.029 15.3265 45.3281 15.3265 63.63V64.8465H58.4893V68.4407ZM98.8364 6.12683H104.702C103.507 3.73261 99.7045 4.01101 98.8364 6.12683Z" fill="#D4262C"/>
<path d="M63.8308 37.7195C64.9582 37.9311 66.3168 38.1316 67.6415 38.4601C68.27 38.616 68.6139 38.4239 68.9944 37.9979C69.7356 37.1627 70.5079 36.3526 71.2802 35.5452C72.4499 34.3231 73.4448 34.3147 74.6004 35.5202C75.4234 36.3777 76.1985 37.2797 77.0553 38.1009C77.3005 38.3348 77.7769 38.4879 78.1151 38.4406C79.3665 38.268 80.5954 37.9645 81.844 37.7696C83.3688 37.533 84.096 38.0954 84.2933 39.6015C84.4427 40.7374 84.6118 41.8732 84.6907 43.0119C84.7358 43.6606 85.0148 43.9974 85.6011 44.2396C86.7031 44.6906 87.7854 45.1917 88.8593 45.7068C90.1643 46.3332 90.4687 47.2463 89.7922 48.5242C89.2539 49.5375 88.6986 50.5453 88.0898 51.5169C87.7178 52.1099 87.6586 52.5916 88.0645 53.2096C88.6733 54.1395 89.189 55.1306 89.7246 56.1077C90.4997 57.5248 90.1953 58.4296 88.7014 59.1339C87.6868 59.6128 86.6721 60.0888 85.6349 60.512C85.0092 60.7653 84.7161 61.1189 84.6794 61.8177C84.6174 62.9591 84.4342 64.095 84.2848 65.228C84.096 66.6507 83.3124 67.2437 81.8947 67.0098C80.6489 66.8038 79.4172 66.5031 78.1658 66.3416C77.7966 66.2943 77.2836 66.4669 77.013 66.7203C76.1506 67.536 75.3783 68.4435 74.5581 69.301C73.4758 70.4341 72.4781 70.4536 71.3986 69.3483C70.6178 68.5493 69.823 67.7559 69.1212 66.8901C68.628 66.2804 68.1037 66.183 67.3878 66.35C66.2604 66.6145 65.1217 66.8233 63.9802 67.0209C62.6781 67.2464 61.8691 66.7036 61.6549 65.4034C61.4464 64.1367 61.3703 62.8477 61.1392 61.5894C61.0715 61.2275 60.7333 60.8015 60.4007 60.6233C59.3184 60.0526 58.1741 59.6016 57.0692 59.0727C55.7671 58.4491 55.4373 57.5136 56.0996 56.2581C56.669 55.1834 57.2665 54.12 57.9091 53.0843C58.2304 52.5693 58.1994 52.16 57.8922 51.6589C57.275 50.6511 56.6944 49.6183 56.1306 48.5798C55.426 47.2797 55.7417 46.3443 57.1002 45.6901C58.1092 45.2029 59.1155 44.6962 60.1639 44.3092C60.908 44.0364 61.173 43.5826 61.235 42.8532C61.3421 41.6449 61.4717 40.4339 61.6775 39.2368C61.8607 38.1678 62.5371 37.6861 63.828 37.7223L63.8308 37.7195ZM80.8857 63.1846C81.0294 62.0989 81.2211 61.0437 81.2944 59.9802C81.3677 58.914 81.875 58.2542 82.853 57.8533C83.8451 57.4468 84.8119 56.9735 85.8266 56.5142C85.2516 55.4897 84.7696 54.5626 84.22 53.6773C83.6619 52.7753 83.6845 51.9373 84.2397 51.0437C84.7893 50.1611 85.2657 49.2369 85.8237 48.2458C84.8147 47.7892 83.8761 47.3271 82.9066 46.9345C81.8891 46.5225 81.3564 45.846 81.2887 44.7352C81.2239 43.6856 81.021 42.6416 80.8744 41.5781C79.6568 41.8036 78.5773 41.9568 77.5232 42.2157C76.5818 42.4467 75.8856 42.1656 75.2712 41.4835C74.5299 40.6622 73.7605 39.866 72.9516 39.0057C72.1116 39.905 71.3309 40.7485 70.5446 41.5865C69.9752 42.1934 69.3129 42.4384 68.4588 42.2435C67.3427 41.9902 66.2097 41.812 64.9949 41.5865C64.8681 42.6555 64.713 43.6104 64.6538 44.5737C64.5806 45.7318 64.0958 46.5225 62.9627 46.9568C61.996 47.3243 61.0743 47.8059 60.0794 48.2597C60.6572 49.2786 61.1363 50.2029 61.6944 51.0854C62.2637 51.9874 62.2327 52.8198 61.6775 53.7107C61.1279 54.5905 60.6487 55.512 60.0878 56.5003C61.0349 56.9374 61.8945 57.4078 62.8077 57.7391C64.0676 58.1957 64.6116 59.042 64.6708 60.3338C64.7159 61.2804 64.8991 62.2186 65.0231 63.1874C66.2181 62.9591 67.2582 62.7976 68.2785 62.5582C69.2819 62.3244 70.0541 62.6167 70.7193 63.3628C71.4352 64.1646 72.1877 64.9357 72.96 65.757C73.8112 64.8439 74.5215 63.9112 75.4121 63.1957C75.9166 62.7893 76.7199 62.5359 77.371 62.5666C78.5153 62.6222 79.6455 62.9508 80.8885 63.1818L80.8857 63.1846Z" fill="#D4262C"/>
<path d="M87.3147 22.2209V25.6285H22.624V22.2209H87.3147Z" fill="#D4262C"/>
<path d="M22.5957 32.7249V29.3062H87.3089V32.7249H22.5957Z" fill="#D4262C"/>
<path d="M40.6348 11.55H69.2709V14.9966H40.6348V11.55Z" fill="#D4262C"/>
<path d="M24.4307 52.4189H47.7004V55.8349H24.4307V52.4189Z" fill="#D4262C"/>
<path d="M63.9835 52.3995C63.9665 47.5275 67.9886 43.5297 72.9379 43.5019C77.8308 43.474 81.9318 47.508 81.9487 52.3605C81.9656 57.199 77.8844 61.2525 72.9773 61.272C68.0788 61.2915 64.0004 57.2686 63.9835 52.3995ZM67.5799 52.3326C67.5573 55.2642 69.8939 57.6333 72.8787 57.7085C75.8156 57.7809 78.3523 55.3115 78.3523 52.3772C78.3523 49.4707 75.9312 47.0793 72.9745 47.0681C70.0038 47.0542 67.6024 49.4011 67.5799 52.3326Z" fill="#D4262C"/>
</g>
<defs>
<clipPath id="clip0_63_1090">
<rect width="108" height="96" fill="white" transform="translate(0.960938 0.806641)"/>
</clipPath>
</defs>
</svg>
