<svg width="25" height="25" viewBox="0 0 25 25" fill="none" xmlns="http://www.w3.org/2000/svg">
<path d="M13.6566 7.09378C14.8565 7.29487 15.9465 7.8616 16.8166 8.72996C17.6868 9.59833 18.2501 10.6861 18.4561 11.8835M13.8398 3.16785C15.974 3.5289 17.9203 4.53895 19.4683 6.07915C21.0162 7.62393 22.0237 9.56632 22.3855 11.6961M20.7185 20.1695C20.7185 20.1695 19.5598 21.3075 19.2759 21.6412C18.8133 22.1348 18.2684 22.3678 17.5539 22.3678C17.4852 22.3678 17.412 22.3678 17.3433 22.3633C15.9831 22.2764 14.7191 21.7463 13.7711 21.2938C11.179 20.0415 8.90288 18.2637 7.01147 16.0105C5.44979 14.1321 4.40562 12.3954 3.71408 10.5307C3.28817 9.39265 3.13246 8.506 3.20116 7.66963C3.24696 7.1349 3.45304 6.69158 3.83316 6.31224L5.39483 4.75375C5.61924 4.54352 5.85738 4.42926 6.09095 4.42926C6.37947 4.42926 6.61303 4.60293 6.75958 4.74918C6.76416 4.75375 6.76874 4.75832 6.77332 4.76289C7.05268 5.0234 7.31831 5.29305 7.59767 5.58098C7.73964 5.72723 7.88619 5.87349 8.03274 6.02431L9.283 7.27201C9.76844 7.75647 9.76844 8.20436 9.283 8.68882C9.15019 8.82135 9.02195 8.95389 8.88914 9.08186C8.50445 9.47491 8.80665 9.17333 8.40821 9.52982C8.39905 9.53896 8.38989 9.54353 8.38531 9.55267C7.99146 9.94572 8.06474 10.3296 8.14717 10.5901C8.15175 10.6038 8.15633 10.6176 8.16091 10.6313C8.48607 11.4174 8.94404 12.1578 9.64015 13.0398L9.64473 13.0444C10.9087 14.5983 12.2414 15.8095 13.7115 16.7372C13.8993 16.8561 14.0916 16.952 14.2748 17.0435C14.4397 17.1257 14.5954 17.2034 14.7282 17.2857C14.7465 17.2948 14.7648 17.3085 14.7832 17.3177C14.9389 17.3954 15.0854 17.4319 15.2365 17.4319C15.6167 17.4319 15.8548 17.1943 15.9327 17.1166L16.8303 16.2207C16.986 16.0653 17.2334 15.878 17.5219 15.878C17.8058 15.878 18.0394 16.0562 18.1813 16.2116C18.1859 16.2162 18.1859 16.2162 18.1905 16.2207L20.7139 18.739C21.1856 19.2052 20.7185 20.1695 20.7185 20.1695Z" stroke="#6D6D6D" stroke-width="2" stroke-linecap="round" stroke-linejoin="round"/>
</svg>
