<svg width="55" height="55" viewBox="0 0 55 55" fill="none" xmlns="http://www.w3.org/2000/svg">
<path d="M14.0464 51.2008C18.0964 53.6308 22.9564 54.9808 27.8164 54.9808C42.6664 54.9808 54.8164 42.8308 54.8164 27.9808C54.8164 13.1308 42.6664 0.980835 27.8164 0.980835C12.9664 0.980835 0.816406 13.1308 0.816406 27.9808C0.816406 32.8408 2.16641 37.4308 4.32641 41.4808L2.00441 50.407C1.88461 50.8678 1.8888 51.3521 2.01655 51.8108C2.1443 52.2695 2.39106 52.6862 2.73182 53.0187C3.07258 53.3513 3.49521 53.5878 3.95686 53.7043C4.41851 53.8208 4.90276 53.8131 5.36051 53.6821L14.0464 51.2008Z" fill="#61BF1A"/>
<path d="M40.7755 36.1841C40.7755 36.6506 40.6718 37.1316 40.45 37.5982C40.2238 38.0802 39.9267 38.5258 39.5687 38.9201C38.9323 39.6199 38.2324 40.1239 37.4375 40.4494C36.6599 40.7748 35.8161 40.9418 34.9089 40.9418C33.5841 40.9418 32.17 40.6308 30.6753 39.9972C29.0951 39.3121 27.5976 38.4503 26.2113 37.4282C24.7036 36.3269 23.2807 35.1139 21.9547 33.7995C20.6427 32.4807 19.4325 31.0645 18.3345 29.563C17.3254 28.1888 16.4716 26.7071 15.7886 25.1451C15.1665 23.6619 14.8555 22.2507 14.8555 20.9057C14.8555 20.0244 15.011 19.1835 15.322 18.4059C15.6331 17.6139 16.1284 16.8881 16.8167 16.2401C17.6462 15.4222 18.5534 15.0219 19.5153 15.0219C19.8782 15.0219 20.2411 15.0996 20.5665 15.2551C20.9035 15.4107 21.2001 15.6439 21.4363 15.9809L24.4487 20.2203C24.6791 20.5428 24.8519 20.8423 24.9671 21.1274C25.0823 21.3982 25.1486 21.6718 25.1486 21.9166C25.1449 22.2432 25.0501 22.5624 24.875 22.8382C24.675 23.1753 24.4309 23.4843 24.1492 23.7569L23.1614 24.7822C23.0927 24.8494 23.0387 24.9302 23.003 25.0195C22.9673 25.1088 22.9506 25.2045 22.954 25.3006C22.954 25.4014 22.9684 25.4935 22.9943 25.5972C23.0318 25.7009 23.0721 25.7787 23.098 25.8564C23.3284 26.2855 23.7316 26.8414 24.3047 27.5153C24.8894 28.1892 25.5115 28.8775 26.1854 29.563C26.8881 30.2513 27.562 30.8849 28.2503 31.4695C28.9243 32.0369 29.483 32.4257 29.9236 32.659L30.1598 32.7655C30.2632 32.8024 30.3726 32.82 30.4823 32.8174C30.5817 32.8195 30.6804 32.8009 30.7721 32.7627C30.8639 32.7245 30.9467 32.6676 31.0151 32.5956L32.0001 31.6222C32.3255 31.2996 32.6366 31.0548 32.9361 30.8964C33.2115 30.7209 33.5311 30.627 33.8577 30.6257C34.1303 30.6297 34.3994 30.6875 34.6497 30.7956C34.9348 30.9108 35.2343 31.0779 35.5569 31.2996L39.8539 34.3466C40.1652 34.5492 40.4128 34.8358 40.5681 35.1732C40.7027 35.4933 40.7732 35.8368 40.7755 36.1841Z" fill="white"/>
</svg>
